<?xml version="1.0" standalone="no"?><!DOCTYPE svg PUBLIC "-//W3C//DTD SVG 1.1//EN" "http://www.w3.org/Graphics/SVG/1.1/DTD/svg11.dtd"><svg t="1666873323189" class="icon" viewBox="0 0 1024 1024" version="1.1" xmlns="http://www.w3.org/2000/svg" p-id="2570" xmlns:xlink="http://www.w3.org/1999/xlink" width="512" height="512"><path d="M784 371.2c-16-25.6-35.2-44.8-44.8-54.4-9.6-9.6-28.8-9.6-38.4 3.2-9.6 9.6-9.6 28.8 3.2 38.4 3.2 3.2 6.4 6.4 9.6 9.6 9.6 9.6 19.2 22.4 25.6 35.2 57.6 86.4 57.6 179.2-38.4 278.4-9.6 9.6-9.6 28.8 0 38.4 9.6 9.6 28.8 9.6 38.4 0C851.2 598.4 851.2 476.8 784 371.2z" p-id="2571"></path><path d="M896 246.4c-16-25.6-35.2-48-54.4-70.4-9.6-12.8-19.2-19.2-25.6-25.6-9.6-9.6-28.8-9.6-38.4 3.2-9.6 9.6-9.6 28.8 3.2 38.4 3.2 3.2 12.8 9.6 22.4 22.4 16 19.2 32 38.4 48 64 105.6 160 105.6 336-70.4 518.4-9.6 9.6-9.6 28.8 0 38.4 9.6 9.6 28.8 9.6 38.4 0C1014.4 630.4 1014.4 425.6 896 246.4z" p-id="2572"></path><path d="M483.2 86.4l-217.6 185.6-108.8 0c-57.6 0-108.8 48-108.8 108.8l0 272c0 60.8 48 108.8 108.8 108.8l96 0 230.4 182.4c54.4 41.6 105.6 16 105.6-51.2l0-755.2C588.8 67.2 534.4 41.6 483.2 86.4zM534.4 889.6c0 22.4-3.2 22.4-19.2 9.6l-236.8-185.6c-3.2-3.2-9.6-6.4-16-6.4l-105.6 0c-28.8 0-54.4-25.6-54.4-54.4l0-272c0-28.8 25.6-54.4 54.4-54.4l118.4 0c6.4 0 12.8-3.2 16-6.4l224-192c16-12.8 16-12.8 16 6.4L531.2 889.6z" p-id="2573"></path></svg>